<?xml version="1.0" encoding="us-ascii" standalone="no"?><svg xmlns="http://www.w3.org/2000/svg" xmlns:xlink="http://www.w3.org/1999/xlink" contentStyleType="text/css" height="540px" preserveAspectRatio="none" style="width:517px;height:540px;background:#FFFFFF;" version="1.1" viewBox="0 0 517 540" width="517px" zoomAndPan="magnify"><defs/><g><!--class Matriz--><g id="elem_Matriz"><rect codeLine="1" fill="#F1F1F1" height="80.5938" id="Matriz" rx="2.5" ry="2.5" style="stroke:#181818;stroke-width:0.5;" width="204" x="183.5" y="279"/><ellipse cx="258.75" cy="295" fill="#ADD1B2" rx="11" ry="11" style="stroke:#181818;stroke-width:1.0;"/><path d="M261.0938,290.6719 C260.1563,290.2344 259.5625,290.0938 258.6875,290.0938 C256.0625,290.0938 254.0625,292.1719 254.0625,294.8906 L254.0625,296.0156 C254.0625,298.5938 256.1719,300.4844 259.0625,300.4844 C260.2813,300.4844 261.4375,300.1875 262.1875,299.6406 C262.7656,299.2344 263.0938,298.7813 263.0938,298.3906 C263.0938,297.9375 262.7031,297.5469 262.2344,297.5469 C262.0156,297.5469 261.8125,297.625 261.625,297.8125 C261.1719,298.2969 261.1719,298.2969 260.9844,298.3906 C260.5625,298.6563 259.875,298.7813 259.1094,298.7813 C257.0625,298.7813 255.7656,297.6875 255.7656,295.9844 L255.7656,294.8906 C255.7656,293.1094 257.0156,291.7969 258.75,291.7969 C259.3281,291.7969 259.9375,291.9531 260.4063,292.2031 C260.8906,292.4844 261.0625,292.7031 261.1563,293.1094 C261.2188,293.5156 261.25,293.6406 261.3906,293.7656 C261.5313,293.9063 261.7656,294.0156 261.9844,294.0156 C262.25,294.0156 262.5156,293.875 262.6875,293.6563 C262.7969,293.5 262.8281,293.3125 262.8281,292.8906 L262.8281,291.4688 C262.8281,291.0313 262.8125,290.9063 262.7188,290.75 C262.5625,290.4844 262.2813,290.3438 261.9844,290.3438 C261.6875,290.3438 261.4844,290.4375 261.2656,290.75 L261.0938,290.6719 Z " fill="#000000"/><text fill="#000000" font-family="sans-serif" font-size="14" lengthAdjust="spacing" textLength="45" x="279.25" y="299.8467">Matriz</text><line style="stroke:#181818;stroke-width:0.5;" x1="184.5" x2="386.5" y1="311" y2="311"/><rect fill="none" height="6" style="stroke:#C82930;stroke-width:1.0;" width="6" x="191.5" y="321.6484"/><text fill="#000000" font-family="sans-serif" font-size="14" lengthAdjust="spacing" textLength="178" x="203.5" y="327.9951">elementos: List[List[int]]</text><line style="stroke:#181818;stroke-width:0.5;" x1="184.5" x2="386.5" y1="335.2969" y2="335.2969"/><ellipse cx="194.5" cy="348.9453" fill="#84BE84" rx="3" ry="3" style="stroke:#038048;stroke-width:1.0;"/><text fill="#000000" font-family="sans-serif" font-size="14" lengthAdjust="spacing" textLength="170" x="203.5" y="352.292">__init__(elementos: list)</text></g><!--class Transpuesta--><g id="elem_Transpuesta"><rect codeLine="6" fill="#F1F1F1" height="96.8906" id="Transpuesta" rx="2.5" ry="2.5" style="stroke:#181818;stroke-width:0.5;" width="237" x="7" y="437"/><ellipse cx="77.25" cy="453" fill="#ADD1B2" rx="11" ry="11" style="stroke:#181818;stroke-width:1.0;"/><path d="M79.5938,448.6719 C78.6563,448.2344 78.0625,448.0938 77.1875,448.0938 C74.5625,448.0938 72.5625,450.1719 72.5625,452.8906 L72.5625,454.0156 C72.5625,456.5938 74.6719,458.4844 77.5625,458.4844 C78.7813,458.4844 79.9375,458.1875 80.6875,457.6406 C81.2656,457.2344 81.5938,456.7813 81.5938,456.3906 C81.5938,455.9375 81.2031,455.5469 80.7344,455.5469 C80.5156,455.5469 80.3125,455.625 80.125,455.8125 C79.6719,456.2969 79.6719,456.2969 79.4844,456.3906 C79.0625,456.6563 78.375,456.7813 77.6094,456.7813 C75.5625,456.7813 74.2656,455.6875 74.2656,453.9844 L74.2656,452.8906 C74.2656,451.1094 75.5156,449.7969 77.25,449.7969 C77.8281,449.7969 78.4375,449.9531 78.9063,450.2031 C79.3906,450.4844 79.5625,450.7031 79.6563,451.1094 C79.7188,451.5156 79.75,451.6406 79.8906,451.7656 C80.0313,451.9063 80.2656,452.0156 80.4844,452.0156 C80.75,452.0156 81.0156,451.875 81.1875,451.6563 C81.2969,451.5 81.3281,451.3125 81.3281,450.8906 L81.3281,449.4688 C81.3281,449.0313 81.3125,448.9063 81.2188,448.75 C81.0625,448.4844 80.7813,448.3438 80.4844,448.3438 C80.1875,448.3438 79.9844,448.4375 79.7656,448.75 L79.5938,448.6719 Z " fill="#000000"/><text fill="#000000" font-family="sans-serif" font-size="14" lengthAdjust="spacing" textLength="88" x="97.75" y="457.8467">Transpuesta</text><line style="stroke:#181818;stroke-width:0.5;" x1="8" x2="243" y1="469" y2="469"/><rect fill="none" height="6" style="stroke:#C82930;stroke-width:1.0;" width="6" x="15" y="479.6484"/><text fill="#000000" font-family="sans-serif" font-size="14" lengthAdjust="spacing" textLength="101" x="27" y="485.9951">matriz: Matriz</text><line style="stroke:#181818;stroke-width:0.5;" x1="8" x2="243" y1="493.2969" y2="493.2969"/><ellipse cx="18" cy="506.9453" fill="#84BE84" rx="3" ry="3" style="stroke:#038048;stroke-width:1.0;"/><text fill="#000000" font-family="sans-serif" font-size="14" lengthAdjust="spacing" textLength="163" x="27" y="510.292">__init__(matriz: Matriz)</text><ellipse cx="18" cy="523.2422" fill="#84BE84" rx="3" ry="3" style="stroke:#038048;stroke-width:1.0;"/><text fill="#000000" font-family="sans-serif" font-size="14" lengthAdjust="spacing" textLength="211" x="27" y="526.5889">calcular_transpuesta(): Matriz</text></g><!--class Imprimir--><g id="elem_Imprimir"><rect codeLine="12" fill="#F1F1F1" height="96.8906" id="Imprimir" rx="2.5" ry="2.5" style="stroke:#181818;stroke-width:0.5;" width="189" x="321" y="437"/><ellipse cx="380.25" cy="453" fill="#ADD1B2" rx="11" ry="11" style="stroke:#181818;stroke-width:1.0;"/><path d="M382.5938,448.6719 C381.6563,448.2344 381.0625,448.0938 380.1875,448.0938 C377.5625,448.0938 375.5625,450.1719 375.5625,452.8906 L375.5625,454.0156 C375.5625,456.5938 377.6719,458.4844 380.5625,458.4844 C381.7813,458.4844 382.9375,458.1875 383.6875,457.6406 C384.2656,457.2344 384.5938,456.7813 384.5938,456.3906 C384.5938,455.9375 384.2031,455.5469 383.7344,455.5469 C383.5156,455.5469 383.3125,455.625 383.125,455.8125 C382.6719,456.2969 382.6719,456.2969 382.4844,456.3906 C382.0625,456.6563 381.375,456.7813 380.6094,456.7813 C378.5625,456.7813 377.2656,455.6875 377.2656,453.9844 L377.2656,452.8906 C377.2656,451.1094 378.5156,449.7969 380.25,449.7969 C380.8281,449.7969 381.4375,449.9531 381.9063,450.2031 C382.3906,450.4844 382.5625,450.7031 382.6563,451.1094 C382.7188,451.5156 382.75,451.6406 382.8906,451.7656 C383.0313,451.9063 383.2656,452.0156 383.4844,452.0156 C383.75,452.0156 384.0156,451.875 384.1875,451.6563 C384.2969,451.5 384.3281,451.3125 384.3281,450.8906 L384.3281,449.4688 C384.3281,449.0313 384.3125,448.9063 384.2188,448.75 C384.0625,448.4844 383.7813,448.3438 383.4844,448.3438 C383.1875,448.3438 382.9844,448.4375 382.7656,448.75 L382.5938,448.6719 Z " fill="#000000"/><text fill="#000000" font-family="sans-serif" font-size="14" lengthAdjust="spacing" textLength="62" x="400.75" y="457.8467">Imprimir</text><line style="stroke:#181818;stroke-width:0.5;" x1="322" x2="509" y1="469" y2="469"/><rect fill="none" height="6" style="stroke:#C82930;stroke-width:1.0;" width="6" x="329" y="479.6484"/><text fill="#000000" font-family="sans-serif" font-size="14" lengthAdjust="spacing" textLength="101" x="341" y="485.9951">matriz: Matriz</text><line style="stroke:#181818;stroke-width:0.5;" x1="322" x2="509" y1="493.2969" y2="493.2969"/><ellipse cx="332" cy="506.9453" fill="#84BE84" rx="3" ry="3" style="stroke:#038048;stroke-width:1.0;"/><text fill="#000000" font-family="sans-serif" font-size="14" lengthAdjust="spacing" textLength="163" x="341" y="510.292">__init__(matriz: Matriz)</text><ellipse cx="332" cy="523.2422" fill="#84BE84" rx="3" ry="3" style="stroke:#038048;stroke-width:1.0;"/><text fill="#000000" font-family="sans-serif" font-size="14" lengthAdjust="spacing" textLength="111" x="341" y="526.5889">imprimir(): void</text></g><!--class Lanzador--><g id="elem_Lanzador"><rect codeLine="18" fill="#F1F1F1" height="194.6719" id="Lanzador" rx="2.5" ry="2.5" style="stroke:#181818;stroke-width:0.5;" width="209" x="181" y="7"/><ellipse cx="248.75" cy="23" fill="#ADD1B2" rx="11" ry="11" style="stroke:#181818;stroke-width:1.0;"/><path d="M251.0938,18.6719 C250.1563,18.2344 249.5625,18.0938 248.6875,18.0938 C246.0625,18.0938 244.0625,20.1719 244.0625,22.8906 L244.0625,24.0156 C244.0625,26.5938 246.1719,28.4844 249.0625,28.4844 C250.2813,28.4844 251.4375,28.1875 252.1875,27.6406 C252.7656,27.2344 253.0938,26.7813 253.0938,26.3906 C253.0938,25.9375 252.7031,25.5469 252.2344,25.5469 C252.0156,25.5469 251.8125,25.625 251.625,25.8125 C251.1719,26.2969 251.1719,26.2969 250.9844,26.3906 C250.5625,26.6563 249.875,26.7813 249.1094,26.7813 C247.0625,26.7813 245.7656,25.6875 245.7656,23.9844 L245.7656,22.8906 C245.7656,21.1094 247.0156,19.7969 248.75,19.7969 C249.3281,19.7969 249.9375,19.9531 250.4063,20.2031 C250.8906,20.4844 251.0625,20.7031 251.1563,21.1094 C251.2188,21.5156 251.25,21.6406 251.3906,21.7656 C251.5313,21.9063 251.7656,22.0156 251.9844,22.0156 C252.25,22.0156 252.5156,21.875 252.6875,21.6563 C252.7969,21.5 252.8281,21.3125 252.8281,20.8906 L252.8281,19.4688 C252.8281,19.0313 252.8125,18.9063 252.7188,18.75 C252.5625,18.4844 252.2813,18.3438 251.9844,18.3438 C251.6875,18.3438 251.4844,18.4375 251.2656,18.75 L251.0938,18.6719 Z " fill="#000000"/><text fill="#000000" font-family="sans-serif" font-size="14" lengthAdjust="spacing" textLength="65" x="269.25" y="27.8467">Lanzador</text><line style="stroke:#181818;stroke-width:0.5;" x1="182" x2="389" y1="39" y2="39"/><rect fill="none" height="6" style="stroke:#C82930;stroke-width:1.0;" width="6" x="189" y="49.6484"/><text fill="#000000" font-family="sans-serif" font-size="14" lengthAdjust="spacing" textLength="178" x="201" y="55.9951">elementos: List[List[int]]</text><rect fill="none" height="6" style="stroke:#C82930;stroke-width:1.0;" width="6" x="189" y="65.9453"/><text fill="#000000" font-family="sans-serif" font-size="14" lengthAdjust="spacing" textLength="127" x="201" y="72.292">cantidad_filas: int</text><rect fill="none" height="6" style="stroke:#C82930;stroke-width:1.0;" width="6" x="189" y="82.2422"/><text fill="#000000" font-family="sans-serif" font-size="14" lengthAdjust="spacing" textLength="165" x="201" y="88.5889">cantidad_columnas: int</text><rect fill="none" height="6" style="stroke:#C82930;stroke-width:1.0;" width="6" x="189" y="98.5391"/><text fill="#000000" font-family="sans-serif" font-size="14" lengthAdjust="spacing" textLength="101" x="201" y="104.8857">matriz: Matriz</text><rect fill="none" height="6" style="stroke:#C82930;stroke-width:1.0;" width="6" x="189" y="114.8359"/><text fill="#000000" font-family="sans-serif" font-size="14" lengthAdjust="spacing" textLength="183" x="201" y="121.1826">transpuesta: Transpuesta</text><rect fill="none" height="6" style="stroke:#C82930;stroke-width:1.0;" width="6" x="189" y="131.1328"/><text fill="#000000" font-family="sans-serif" font-size="14" lengthAdjust="spacing" textLength="133" x="201" y="137.4795">imprimir: Imprimir</text><line style="stroke:#181818;stroke-width:0.5;" x1="182" x2="389" y1="144.7813" y2="144.7813"/><ellipse cx="192" cy="158.4297" fill="#84BE84" rx="3" ry="3" style="stroke:#038048;stroke-width:1.0;"/><text fill="#000000" font-family="sans-serif" font-size="14" lengthAdjust="spacing" textLength="62" x="201" y="161.7764">__init__()</text><ellipse cx="192" cy="174.7266" fill="#84BE84" rx="3" ry="3" style="stroke:#038048;stroke-width:1.0;"/><text fill="#000000" font-family="sans-serif" font-size="14" lengthAdjust="spacing" textLength="140" x="201" y="178.0732">crear_matriz(): void</text><ellipse cx="192" cy="191.0234" fill="#84BE84" rx="3" ry="3" style="stroke:#038048;stroke-width:1.0;"/><text fill="#000000" font-family="sans-serif" font-size="14" lengthAdjust="spacing" textLength="92" x="201" y="194.3701">lanzar(): void</text></g><!--link Matriz to Transpuesta--><g id="link_Matriz_Transpuesta"><path codeLine="30" d="M246.768,360.2 C224.202,383.33 195.603,412.645 171.846,436.9956 " fill="none" id="Matriz-Transpuesta" style="stroke:#181818;stroke-width:1.0;"/><text fill="#000000" font-family="sans-serif" font-size="13" lengthAdjust="spacing" textLength="46" x="215.5" y="403.0669">&#171;uses&#187;</text></g><!--link Matriz to Imprimir--><g id="link_Matriz_Imprimir"><path codeLine="31" d="M316.969,360.2 C335.305,383.33 358.542,412.645 377.844,436.9956 " fill="none" id="Matriz-Imprimir" style="stroke:#181818;stroke-width:1.0;"/><text fill="#000000" font-family="sans-serif" font-size="13" lengthAdjust="spacing" textLength="46" x="351.5" y="403.0669">&#171;uses&#187;</text></g><!--link Lanzador to Matriz--><g id="link_Lanzador_Matriz"><path codeLine="32" d="M285.5,202.029 C285.5,229.106 285.5,257.052 285.5,278.78 " fill="none" id="Lanzador-Matriz" style="stroke:#181818;stroke-width:1.0;"/><text fill="#000000" font-family="sans-serif" font-size="13" lengthAdjust="spacing" textLength="64" x="286.5" y="245.0669">&#171;creates&#187;</text></g><!--link Lanzador to Transpuesta--><g id="link_Lanzador_Transpuesta"><path codeLine="33" d="M180.611,176.411 C148.374,204.23 116.841,239.109 99.5,279 C77.4208,329.789 91.3145,393.838 105.8911,436.8148 " fill="none" id="Lanzador-Transpuesta" style="stroke:#181818;stroke-width:1.0;"/><text fill="#000000" font-family="sans-serif" font-size="13" lengthAdjust="spacing" textLength="64" x="100.5" y="324.0669">&#171;creates&#187;</text></g><!--link Lanzador to Imprimir--><g id="link_Lanzador_Imprimir"><path codeLine="34" d="M366.182,202.181 C381.982,225.955 396.446,252.292 405.5,279 C423.047,330.757 423.192,394.051 420.468,436.6052 " fill="none" id="Lanzador-Imprimir" style="stroke:#181818;stroke-width:1.0;"/><text fill="#000000" font-family="sans-serif" font-size="13" lengthAdjust="spacing" textLength="64" x="420.5" y="324.0669">&#171;creates&#187;</text></g><!--SRC=[dL4nRWCX4Epl5Llw5F41PBcFv7Jf8WkjE2Aj19m5UoaSvUy1Z374AQ8q5CpipCwijXWZl207ki3d1230MEECvpLAE5Baj_AGvzCfmK-W57bYfNOTpoRAF7rDaovohm5zF6ycCbPDLmnaDHfrHcmke4QhDuj1yLrgDxVvvlJipe4SXN_QK1tFqXyhBNVX8_eBBcluIoSYhUkP5bpKEwLf2GaP__LgD-Txw65L0LrMsNTOmDkgicKUuzNUWacbNRLRg0pOd6V8MMykn70k2Vlz5aqy73f2Qxb3Mq49hyoCvWNuWV3JuNVMODCetm00]--></g></svg>